<mxfile host="Electron" modified="2024-07-01T14:42:31.190Z" agent="Mozilla/5.0 (Windows NT 10.0; Win64; x64) AppleWebKit/537.36 (KHTML, like Gecko) draw.io/24.2.5 Chrome/120.0.6099.109 Electron/28.1.0 Safari/537.36" etag="zcBEttEd6Sf0fSpXJ4sx" version="24.2.5" type="device">
  <diagram name="Page-1" id="c7488fd3-1785-93aa-aadb-54a6760d102a">
    <mxGraphModel dx="989" dy="582" grid="1" gridSize="10" guides="1" tooltips="1" connect="1" arrows="1" fold="1" page="1" pageScale="1" pageWidth="1100" pageHeight="850" background="none" math="0" shadow="0">
      <root>
        <mxCell id="0" />
        <mxCell id="1" parent="0" />
        <mxCell id="2b4e8129b02d487f-1" value="notebooks/cdc_kafka_spark.ipynb" style="swimlane;html=1;childLayout=stackLayout;horizontal=1;startSize=20;horizontalStack=0;rounded=0;shadow=0;labelBackgroundColor=none;strokeWidth=1;fontFamily=Verdana;fontSize=8;align=center;fillColor=#e1d5e7;strokeColor=#9673a6;" parent="1" vertex="1">
          <mxGeometry x="180" y="70" width="680" height="470" as="geometry" />
        </mxCell>
        <mxCell id="2b4e8129b02d487f-2" value="Ingestion to RDBMS" style="swimlane;html=1;startSize=20;horizontal=0;fillColor=#f8cecc;strokeColor=#b85450;" parent="2b4e8129b02d487f-1" vertex="1">
          <mxGeometry y="20" width="680" height="150" as="geometry" />
        </mxCell>
        <mxCell id="tdiZiFCfoBnyN8k7CQTj-2" value="" style="edgeStyle=orthogonalEdgeStyle;rounded=0;orthogonalLoop=1;jettySize=auto;html=1;" edge="1" parent="2b4e8129b02d487f-2" source="2b4e8129b02d487f-6" target="tdiZiFCfoBnyN8k7CQTj-1">
          <mxGeometry relative="1" as="geometry" />
        </mxCell>
        <mxCell id="2b4e8129b02d487f-6" value="Run mysql_works.fake_record_creator_sakila()&lt;br&gt;method from mysql_analyzer module to create fake data on Mysql db to simulate data creation" style="rounded=1;whiteSpace=wrap;html=1;shadow=0;labelBackgroundColor=none;strokeWidth=1;fontFamily=Verdana;fontSize=8;align=left;" parent="2b4e8129b02d487f-2" vertex="1">
          <mxGeometry x="30" y="30" width="200" height="60" as="geometry" />
        </mxCell>
        <mxCell id="tdiZiFCfoBnyN8k7CQTj-1" value="Detect CDC (Insert type) on customers table and write log details to users_change_events table by SQL trigger" style="rounded=1;whiteSpace=wrap;html=1;shadow=0;labelBackgroundColor=none;strokeWidth=1;fontFamily=Verdana;fontSize=8;align=left;" vertex="1" parent="2b4e8129b02d487f-2">
          <mxGeometry x="500" y="30" width="155" height="60" as="geometry" />
        </mxCell>
        <mxCell id="2b4e8129b02d487f-3" value="Write to Kafka Topic" style="swimlane;html=1;startSize=20;horizontal=0;fillColor=#fff2cc;strokeColor=#d6b656;" parent="2b4e8129b02d487f-1" vertex="1">
          <mxGeometry y="170" width="680" height="150" as="geometry" />
        </mxCell>
        <mxCell id="tdiZiFCfoBnyN8k7CQTj-5" value="Using Kafka Producer module and write data detected by CDC to Kafka topic with serialization&amp;nbsp;" style="rounded=1;whiteSpace=wrap;html=1;shadow=0;labelBackgroundColor=none;strokeWidth=1;fontFamily=Verdana;fontSize=8;align=center;" vertex="1" parent="2b4e8129b02d487f-3">
          <mxGeometry x="492.5" y="45" width="170" height="60" as="geometry" />
        </mxCell>
        <mxCell id="2b4e8129b02d487f-4" value="Spark Stream read" style="swimlane;html=1;startSize=20;horizontal=0;fillColor=#d5e8d4;strokeColor=#82b366;" parent="2b4e8129b02d487f-1" vertex="1">
          <mxGeometry y="320" width="680" height="150" as="geometry" />
        </mxCell>
        <mxCell id="tdiZiFCfoBnyN8k7CQTj-9" value="" style="edgeStyle=orthogonalEdgeStyle;rounded=0;orthogonalLoop=1;jettySize=auto;html=1;" edge="1" parent="2b4e8129b02d487f-4" source="2b4e8129b02d487f-12" target="tdiZiFCfoBnyN8k7CQTj-8">
          <mxGeometry relative="1" as="geometry" />
        </mxCell>
        <mxCell id="2b4e8129b02d487f-12" value="Spark structured streaming read from Topic by schema enforcement into dataframe" style="rounded=1;whiteSpace=wrap;html=1;shadow=0;labelBackgroundColor=none;strokeWidth=1;fontFamily=Verdana;fontSize=8;align=center;" parent="2b4e8129b02d487f-4" vertex="1">
          <mxGeometry x="493.75" y="42.5" width="167.5" height="47.5" as="geometry" />
        </mxCell>
        <mxCell id="tdiZiFCfoBnyN8k7CQTj-8" value="Aggregating data according to required analytical query and applying thumbling window function on dataframe" style="rounded=1;whiteSpace=wrap;html=1;shadow=0;labelBackgroundColor=none;strokeWidth=1;fontFamily=Verdana;fontSize=8;align=center;" vertex="1" parent="2b4e8129b02d487f-4">
          <mxGeometry x="50" y="42.5" width="167.5" height="47.5" as="geometry" />
        </mxCell>
        <mxCell id="tdiZiFCfoBnyN8k7CQTj-6" value="" style="edgeStyle=orthogonalEdgeStyle;rounded=0;orthogonalLoop=1;jettySize=auto;html=1;" edge="1" parent="2b4e8129b02d487f-1" source="tdiZiFCfoBnyN8k7CQTj-1" target="tdiZiFCfoBnyN8k7CQTj-5">
          <mxGeometry relative="1" as="geometry" />
        </mxCell>
        <mxCell id="tdiZiFCfoBnyN8k7CQTj-7" value="" style="edgeStyle=orthogonalEdgeStyle;rounded=0;orthogonalLoop=1;jettySize=auto;html=1;" edge="1" parent="2b4e8129b02d487f-1" source="tdiZiFCfoBnyN8k7CQTj-5" target="2b4e8129b02d487f-12">
          <mxGeometry relative="1" as="geometry" />
        </mxCell>
      </root>
    </mxGraphModel>
  </diagram>
</mxfile>
